<?xml version="1.0" encoding="utf-8"?>
<!DOCTYPE svg PUBLIC "-//W3C//DTD SVG 1.0//EN" "http://www.w3.org/TR/2001/REC-SVG-20010904/DTD/svg10.dtd">
<svg version="1.0" xmlns="http://www.w3.org/2000/svg" width="996px" height="788px" viewBox="0 0 996 788" preserveAspectRatio="xMidYMid meet">
 <g fill="#E2E8EB" fill-rule="evenodd" stroke="#E2E8EB" stroke-width="0.5">
  <path d="M499.60 753 C450.15 749.15 406.30 736.15 365 713.10 C322.80 689.55 285.75 655.65 259.55 616.55 C249.55 601.70 237.65 579.10 231.10 562.50 C220.65 536.15 210.90 498.25 206.50 467 C204.55 452.90 202.25 429.10 202.55 426.05 L202.75 424.45 205.35 426.20 C206.75 427.20 208.05 427.95 208.20 428 C208.35 428 209.35 428.50 210.35 429.15 C221.65 436.25 244.25 446.60 262.25 452.95 L265.25 454 266.85 463.85 C269.75 481.45 274.35 500.45 279.60 516.50 C282 523.85 286.10 535.15 287.65 538.65 C288.05 539.50 289.55 542.95 291 546.25 C306.65 582.25 330.60 613.20 359.80 635.05 C388.60 656.55 424.90 671.40 462.50 676.90 C475.95 678.90 481.35 679.25 499.25 679.20 C512.70 679.20 518.60 679 525 678.30 C547.20 675.85 570.30 670.65 587.05 664.25 C592.85 662.05 597.65 659.95 597.35 659.70 C597.30 659.65 595.55 659.90 593.50 660.30 C576.60 663.50 551.55 665.30 530.50 664.80 C492.70 663.85 460.50 657.80 429.50 645.80 C419.25 641.85 415.90 640.40 406.50 635.65 C367.20 616 340.30 592.05 320.35 559.15 C317.05 553.70 309.35 538.50 306.45 531.75 C299.75 516 294.05 497.75 290.05 479.25 C287.85 469 286.35 460.90 286.65 460.65 C286.75 460.50 291 461.30 296.05 462.40 C301.10 463.50 306.50 464.65 308.10 464.95 C310.60 465.45 311 465.70 311.25 466.90 C312.25 471.35 314.85 481.05 316.30 485.95 C332.35 539.50 359.85 580.30 398.50 608.05 C411.40 617.35 427.80 625.95 444.10 632.05 C453 635.35 470.30 640.10 478.25 641.40 C479.90 641.70 483.15 642.25 485.50 642.65 C490.15 643.45 491.70 643.65 501.25 644.75 C523.55 647.25 552.60 645.50 576.50 640.20 C597.85 635.40 619.60 627.35 635.40 618.35 C637.75 617.05 639.70 616 639.80 616 C640.30 616 652 608.30 656.50 605.05 C683.05 585.70 704.35 560.40 718.85 531 C722.60 523.30 728.75 508.60 728.35 508.20 C728.15 507.95 723 509.30 711.20 512.65 C682.05 520.90 662.95 526.10 662.70 525.85 C662.60 525.75 660.60 518.85 658.30 510.45 C651.75 487.05 645.10 463.05 642.75 454.50 C641.55 450.20 639.20 441.70 637.50 435.55 C635.80 429.40 634.50 424.30 634.55 424.20 C634.65 424.15 635.95 423.75 637.50 423.35 C639 422.95 647.65 420.55 656.75 418 C682.65 410.80 717.35 401.15 727.25 398.40 C743.80 393.80 750.70 391.90 756.75 390.25 C760.05 389.30 767.35 387.30 773 385.75 C778.60 384.20 786.25 382.05 790 381 C793.70 379.95 801 377.90 806.25 376.50 C811.45 375.05 816.75 373.60 818 373.20 C826.45 370.65 871.60 358.40 871.75 358.60 C871.90 358.75 876.60 375.45 882.25 395.80 C895.60 444.10 897.40 450.45 897.90 452.25 C898.15 453.05 899.35 457.20 900.50 461.50 C901.65 465.75 903.70 473.05 905 477.75 C906.30 482.40 908.40 489.95 909.65 494.50 C913.25 507.55 918.10 525.10 924.95 549.75 C926.30 554.40 928.50 562.40 929.90 567.50 C931.30 572.55 933.60 580.75 935 585.65 C936.35 590.55 937.50 594.90 937.50 595.25 C937.50 595.65 936.85 596.10 936.10 596.25 C935.35 596.45 932.50 597.20 929.75 598 C927 598.80 921.45 600.30 917.50 601.40 C913.50 602.50 906.05 604.55 901 605.95 C892.30 608.40 887.85 609.65 864.85 616 C843.85 621.85 836.05 624 835.80 624 C835.60 624 835.50 623.70 835.50 623.35 C835.50 623 834.60 619.55 833.50 615.70 C832.45 611.85 828.80 598.85 825.45 586.75 C822.10 574.65 819.20 564.45 819.05 564.10 C818.85 563.75 817.45 566 815.70 569.60 C806.65 588.10 794.60 607.75 782.75 623.25 C774.55 633.90 769.20 640.25 760.10 650.05 C744.60 666.75 718.10 689.45 699.40 702.05 C678.25 716.25 651.45 729 625.50 737.25 C600.70 745.05 576.80 750 552.85 752.20 C542.45 753.15 508.35 753.65 499.60 753 M473.60 712.25 C448.70 710.75 435.40 708.90 417.80 704.40 C396.65 699 375.45 690.20 357.05 679.20 C333.15 664.85 311.95 645.75 295.45 623.75 C276.55 598.45 260.95 566.45 251.50 533.50 C244.55 509.40 241.20 491.50 238.75 465.75 C238.45 462.45 239.05 463.65 240.45 469 C259.25 541.40 292.35 600.95 335 639.15 C353.50 655.80 368.55 665.85 390 675.90 C400.10 680.70 414.50 686.05 423.75 688.50 C441.85 693.30 452.90 695.50 468 697.25 C479.15 698.55 483.90 698.75 503.75 698.70 C519.70 698.65 524.35 698.50 533 697.55 C561.25 694.50 584.80 689.35 613.15 679.95 C615.60 679.10 617.70 678.55 617.80 678.65 C618.10 678.95 598.25 688.40 590.85 691.45 C570.35 699.85 546.45 706.25 523.75 709.45 C509 711.50 484.35 712.90 473.60 712.25 "/>
  <path d="M480.35 620.70 C479.75 620.50 477 619.85 474.25 619.20 C462.40 616.50 453.30 613.40 442.65 608.65 C393.45 586.50 357.75 539.80 340.50 475.05 L339 469.35 342.35 469.65 C349.90 470.40 360.55 471 360.95 470.75 C361.65 470.30 361.90 471.05 363.25 477.50 C364.50 483.80 366.75 492.65 368.55 498.75 C379.15 533.90 394.50 559.60 417 579.70 C432.90 593.90 448.20 604.35 466.25 613.35 C473.90 617.20 480.30 620 481.45 620 C481.75 620 482 620.20 482 620.50 C482 621.05 481.85 621.05 480.35 620.70 "/>
  <path d="M214.60 608.65 C210.80 606.45 209.45 604.05 209.50 599.60 C209.50 596 211.20 593.25 214.45 591.60 C218.65 589.50 223.55 590.70 226.70 594.65 C228.05 596.35 228.20 596.90 228.20 599.90 C228.15 604 226.85 606.45 223.65 608.25 C221.05 609.75 216.75 609.95 214.60 608.65 M218.40 606.05 C217.50 605.30 218.30 604.05 220.20 603.25 C221.30 602.80 222.05 602.10 222.25 601.30 C222.75 599.35 223.85 598.65 224.80 599.60 C225.55 600.30 225.50 600.55 224.65 602.30 C223.20 605.25 219.95 607.20 218.40 606.05 "/>
  <path d="M157.20 581.90 L153.95 579.35 151.10 581.35 C146.65 584.40 146.60 584.40 149.10 580.80 C150.40 578.95 151.50 577.35 151.50 577.25 C151.50 577.10 150.45 575.55 149.20 573.75 C147.95 571.95 147.05 570.50 147.20 570.50 C147.40 570.50 149 571.50 150.75 572.75 L153.95 575.05 155.85 573.60 C161.45 569.25 161.70 569.30 158.40 573.85 C157.35 575.25 156.50 576.75 156.50 577.15 C156.50 577.55 157.50 579.25 158.75 580.90 C159.95 582.60 160.85 584.10 160.75 584.25 C160.60 584.35 159 583.30 157.20 581.90 "/>
  <path d="M100 546.60 C100 546.40 101 544.90 102.25 543.25 C103.45 541.60 104.50 540.15 104.50 540.05 C104.50 539.95 103.85 539.05 103.05 538.05 C100.50 534.75 99.25 532.80 100 533.20 C100.40 533.45 102.10 534.60 103.75 535.80 L106.75 537.90 110.15 535.40 C112.05 534.05 113.65 533 113.75 533.05 C113.80 533.15 112.75 534.75 111.40 536.60 C109.95 538.60 109.10 540.25 109.30 540.60 C109.50 540.95 110.50 542.40 111.55 543.85 C112.60 545.25 113.50 546.55 113.50 546.75 C113.50 546.90 112.05 546.05 110.25 544.75 C108.50 543.50 106.90 542.50 106.75 542.50 C106.55 542.50 105.20 543.40 103.70 544.50 C100.55 546.80 99.95 547.10 100 546.60 "/>
  <path d="M172.05 538.95 C167.40 536.50 165.75 530.10 168.50 525.55 C169 524.70 170.40 523.40 171.55 522.60 C174.35 520.80 178.85 520.70 181.65 522.45 C186.55 525.45 187.50 532.95 183.55 537.15 C180.85 540.10 175.70 540.90 172.05 538.95 M175.90 536.20 C175.25 535.30 175.35 535.15 177.55 534.05 C178.50 533.60 179.60 532.45 180.10 531.50 C181.05 529.55 181.85 529.30 182.65 530.55 C183.80 532.45 180.15 537 177.50 537 C176.95 537 176.20 536.65 175.90 536.20 "/>
  <path d="M421.25 531.30 C414.50 528.60 410.60 522.25 411.10 514.80 C411.45 509.40 413.95 505.35 418.75 502.50 C421.60 500.80 421.85 500.75 426.70 500.75 C431.35 500.75 431.95 500.85 434.40 502.20 C438.90 504.70 441.70 508.55 442.50 513.25 C443.65 520.40 440.20 527.45 434.10 530.45 C431.35 531.80 423.80 532.30 421.25 531.30 M425.25 526.20 C424.80 525.75 424.50 525 424.50 524.50 C424.50 523.55 426.30 521.65 426.80 522.10 C427.30 522.65 430.65 521.05 431.60 519.85 C432.05 519.20 432.45 518.15 432.45 517.45 C432.50 515.70 433.80 514 435.15 514 C439.65 514 437.10 523.10 431.90 525.75 C429.65 526.90 426.10 527.15 425.25 526.20 "/>
  <path d="M116.45 500.20 C115.35 499.75 113.25 498.30 111.75 496.95 C104.50 490.25 105.20 477.90 113.25 472.40 C119.75 467.90 128.70 468.70 134.05 474.30 C141.35 481.90 139.35 494.50 130.10 499.35 C127.30 500.80 126.55 501 122.75 501 C120 501 117.75 500.70 116.45 500.20 M121 495.40 C120.70 495.05 120.50 494.15 120.50 493.45 C120.50 491.85 121.50 491.20 124.15 491.05 C125.70 490.95 128.50 487.75 128.50 486.05 C128.50 483.30 130.95 482.05 132.70 483.95 C133.40 484.70 133.50 485.35 133.25 486.85 C132.35 491.85 127.80 496 123.25 496 C122.25 496 121.25 495.70 121 495.40 "/>
  <path d="M397.10 489 C397.45 488.45 398.60 486.80 399.65 485.30 L401.55 482.60 399.20 479.55 C397.90 477.85 396.90 476.35 397.05 476.25 C397.20 476.10 398.70 477 400.45 478.30 L403.60 480.55 407.35 477.95 C409.45 476.50 410.95 475.65 410.70 476 C410.50 476.40 409.30 478.10 408.10 479.85 L405.90 482.95 408.40 486.35 C409.75 488.20 410.80 489.80 410.75 489.90 C410.65 489.95 409.05 488.90 407.20 487.50 L403.85 485 402.30 486.05 C401.45 486.65 399.90 487.80 398.85 488.55 C396.65 490.25 396.25 490.30 397.10 489 "/>
  <path d="M470.10 487.40 C466.05 485.70 464 482.70 464 478.40 C464 472.75 467.25 469.35 472.90 469.10 C477.45 468.90 479.65 470.15 481.70 474.15 C483.10 476.90 483.15 477.15 482.60 479.80 C481.95 482.95 480.15 485.60 477.95 486.75 C475.95 487.75 471.80 488.10 470.10 487.40 M472.70 484.05 C471.85 483 472.30 482.40 474.50 481.55 C475.15 481.30 476.15 480.25 476.70 479.20 C477.80 477.20 478.40 476.90 479.15 478.10 C480.25 479.80 478.20 482.95 475.25 484.25 C473.60 484.90 473.40 484.90 472.70 484.05 "/>
  <path d="M157.50 482.25 C157.50 482.10 159.50 479.15 161.95 475.75 L166.45 469.50 161.70 462.90 C159.10 459.25 157.10 456.20 157.20 456.10 C157.30 455.95 158.40 456.65 159.55 457.60 C160.75 458.55 163.70 460.75 166.10 462.40 L170.45 465.50 176.75 460.95 C180.25 458.45 183.15 456.50 183.25 456.60 C183.35 456.70 181.80 459.05 179.80 461.75 C177.80 464.50 175.75 467.35 175.25 468.10 L174.35 469.45 178.55 475.35 C183.70 482.55 183.85 482.75 182.95 482.20 C182.55 482 179.60 479.90 176.35 477.60 L170.50 473.35 164.50 477.65 C158.25 482.15 157.50 482.65 157.50 482.25 "/>
  <path d="M67.50 464.70 L61.05 459.95 54.90 464.45 C51.50 466.95 48.55 468.95 48.30 468.95 C47.85 469 48.55 467.95 53.60 461.05 C55.50 458.50 56.95 456.15 56.80 455.80 C56.70 455.50 54.65 452.55 52.30 449.25 C48.15 443.50 47.25 441.70 49.60 443.80 C50.20 444.35 53.05 446.45 55.85 448.45 L61 452.10 62.85 450.85 C63.90 450.15 66.75 448.10 69.20 446.30 C71.70 444.50 73.80 443.15 73.90 443.20 C74 443.30 72 446.25 69.55 449.75 L65 456.10 67.20 459.15 C71.35 464.90 74.50 469.50 74.25 469.50 C74.10 469.50 71.05 467.35 67.50 464.70 "/>
  <path d="M361.80 449.05 C348.10 448.40 343.30 447.95 342.95 447.40 C342.35 446.45 340.20 429.90 339.20 419 C337.55 400.40 337.10 366 338.30 354.50 C338.80 349.55 337.40 352.50 334.30 363 C330.30 376.25 326.75 394.15 325.25 408.70 C324.15 418.95 323.35 436.55 323.75 441.35 C324 444.65 323.95 445.45 323.40 445.45 C319.85 445.40 297.80 440.85 287.40 438.05 C275.45 434.75 260 429.40 250 425 C247.35 423.85 244.35 422.55 243.30 422.10 C242.20 421.70 237.90 419.55 233.65 417.40 C207.10 403.90 183.40 386.55 162.90 365.60 L156.10 358.65 156.50 356.20 C157.10 352.25 159.40 344.05 161 340.05 C161.85 338 162.40 336.25 162.30 336.15 C162.10 335.95 154.05 344.65 150.95 348.40 L149.15 350.60 144.40 344.65 C129.55 326.10 117.80 307.05 108.50 286.55 C105.40 279.70 100.50 267.05 100.45 265.85 C100.45 264.65 108.60 252.85 115.70 243.75 C129.10 226.50 146.65 208.45 165.25 193 C194 168.95 230.80 146.60 267 131.20 C274.45 128 286.40 123.50 287.30 123.50 C287.65 123.50 289.40 125.45 291.30 127.85 C295.30 133.05 311.15 149.05 318.25 155.05 C332.95 167.55 352.80 181.70 375 195.50 C385.75 202.20 386.55 202.65 394.50 207.25 C398.20 209.40 402.30 211.75 403.60 212.55 C404.90 213.35 406.10 214 406.20 213.95 C406.30 213.95 408.35 215.10 410.75 216.45 C413.10 217.85 415.15 218.95 415.25 219 C415.35 219 417.75 220.25 420.60 221.80 C423.40 223.35 431.70 227.65 439 231.35 C446.25 235.05 452.30 238.15 452.40 238.25 C452.45 238.30 451.80 239.80 450.95 241.55 C442.45 258.35 436.65 280.20 434.15 304.65 C433.05 315.70 433.05 340 434.15 352.50 C436.80 382.05 442.80 412.35 451.05 437.90 C452.15 441.20 452.40 442.70 452 442.95 C451.45 443.30 438.50 445.20 429.55 446.20 C425 446.75 424.35 446.70 424 446 C423.05 444.30 416.30 423.75 413.90 415.50 C411.30 406.50 405.20 381.90 404.85 379.25 L404.65 377.75 404 379.25 C403.50 380.35 403.35 384.20 403.35 394.25 C403.30 411.65 404.40 424.35 407.30 440.40 C408.25 445.80 408.45 447.70 408 447.95 C406.50 448.85 374.10 449.60 361.80 449.05 "/>
  <path d="M140.60 424.80 C137.70 423.80 136.50 423 133.90 420.60 C130.80 417.70 129.50 414.30 129.50 409.20 C129.50 402.85 132.35 398.10 138.10 395.10 C140.35 393.95 141.30 393.75 145 393.75 C151.60 393.75 155.15 395.70 158.90 401.50 C160.45 403.90 160.70 404.65 160.85 408.25 C161.05 411.45 160.85 412.80 160 415.05 C158.60 418.80 155.60 422.10 152.20 423.70 C148.85 425.25 143.35 425.80 140.60 424.80 M144 419.70 C142.85 418.80 142.65 416.85 143.60 416.10 C143.95 415.85 145.10 415.45 146.15 415.25 C148.60 414.80 150.25 413.15 151 410.40 C151.30 409.20 151.80 407.95 152.10 407.60 C153.35 406.05 156 407.70 156 410.05 C156 412.35 153.40 416.60 151.10 418.10 C148.05 420.05 145.25 420.70 144 419.70 "/>
  <path d="M61.05 405.55 C54.65 404.65 47.60 399.75 44.60 394.15 C42.10 389.40 41.30 385.95 41.60 380.90 C42.05 372.50 47.05 365.15 54.70 361.50 C60.65 358.65 68.80 358.60 74.70 361.40 C88.65 367.95 92.45 386.50 82.15 397.95 C79.20 401.25 76.50 403.10 72.60 404.40 C68.75 405.70 64.90 406.10 61.05 405.55 M63 397.90 C61.60 397.10 60.95 394.90 61.65 393.40 C62.35 392.05 64.20 391 65.85 391 C69.30 390.95 72.85 387.35 73.35 383.35 C73.85 379.40 77.05 377.65 79.40 380.15 C82.95 383.95 77.55 394.35 70.70 396.95 C67.20 398.25 64.25 398.65 63 397.90 "/>
  <path d="M783.60 253.55 C779.40 252.30 774.20 248.45 771.85 244.90 C770.90 243.40 769.20 240.10 768.10 237.50 C757.95 213.55 743.80 190.70 726.25 169.75 C720.30 162.60 706.30 148.45 699 142.15 C658.10 106.95 608.55 88 557.35 88 C538.90 87.95 523.40 89.90 505.75 94.45 C482.70 100.35 460.95 110.10 440.55 123.55 C425.45 133.55 423.35 135.80 421.80 143.50 C420.05 152.15 424.15 160.85 432 165.25 C432.70 165.65 440.65 169.75 449.75 174.40 C458.80 179.05 468.60 184.05 471.50 185.50 C480.45 190.10 486.60 197.25 489.30 206.25 C490.65 210.80 490.55 219.10 489.05 224 C488.15 226.85 483.15 237.40 482.25 238.35 C482.10 238.55 455.05 225.60 454.25 225 C453.95 224.80 450.35 222.90 446.25 220.80 C407.55 201.25 361.70 171.75 328.75 145.25 C324.65 141.95 320.60 138.65 319.75 138 C304.50 125.80 271.45 93.90 271.50 91.35 C271.50 90.50 282.15 81.75 286 79.40 C290.90 76.40 294.45 75.40 301 75.10 C305.90 74.90 307.40 75 310.75 75.95 C315.90 77.35 320.65 79.90 324 83.05 C332.45 90.85 342.35 99.75 345.70 102.50 C346.50 103.20 347.95 104.40 348.95 105.25 C356.65 111.85 361.80 114 369.90 114 C378 114 382.85 111.80 393.25 103.40 C425.20 77.65 459 60.50 496 51.25 C539.75 40.30 585.45 41.30 629.25 54.25 C648.25 59.85 670.05 69.35 687.25 79.50 C724.55 101.50 757.70 133.35 782.20 170.75 C786.85 177.85 792.70 187.55 795.70 193.25 C797 195.70 798.70 198.85 799.50 200.25 C801.65 204.10 809.80 222.05 811 225.55 C811.90 228.15 812.05 229.60 811.90 233.30 C811.70 237.35 811.50 238.30 809.80 241.65 C807.50 246.35 804.10 249.80 799.75 251.90 C796.80 253.30 795.85 253.50 790.75 253.75 C787.55 253.85 784.35 253.80 783.60 253.55 "/>
 </g>
</svg>