<svg class="img-fluid" id="outputsvg" xmlns="http://www.w3.org/2000/svg" style="transform: matrix(1, 0, 0, 1, 0, 0); transform-origin: 50% 50%; cursor: move; max-height: none;" width="2468" height="1738" viewBox="0 0 24680 17380"><g id="l3EThDpz0BTkcC2CdMzRLs8" fill="rgb(0,88,124)" style="transform: none;"><g style="transform: none;"><path id="pRGpTNeEf" d="M16305 14909 c-651 -68 -1128 -514 -1246 -1165 -31 -169 -31 -478 -1 -644 39 -214 120 -419 235 -590 64 -96 231 -263 327 -327 249 -167 516 -243 850 -243 330 0 572 68 821 231 111 73 262 221 336 329 205 302 286 675 236 1098 l-6 52 -1105 0 -1105 0 7 66 c9 89 57 235 103 313 76 128 208 247 344 311 243 113 581 101 794 -28 81 -49 173 -144 225 -230 l42 -72 319 0 318 0 -15 43 c-105 299 -377 598 -666 732 -236 109 -529 154 -813 124z m955 -1753 c0 -44 -24 -179 -41 -231 -58 -173 -208 -331 -393 -415 -187 -85 -451 -99 -645 -34 -277 92 -477 341 -525 652 l-6 42 805 0 c691 0 805 -2 805 -14z"></path><path id="p1B8GcWve6" d="M19476 14910 c-444 -56 -801 -307 -1024 -720 -172 -319 -226 -764 -140 -1159 88 -411 344 -757 698 -945 108 -57 268 -111 390 -131 125 -20 359 -20 481 1 252 42 472 157 662 346 l97 97 0 -209 0 -210 300 0 300 0 0 1445 0 1445 -300 0 -300 0 0 -214 0 -214 -102 103 c-237 237 -517 357 -864 369 -71 3 -160 1 -198 -4z m462 -526 c468 -96 759 -564 692 -1114 -62 -501 -442 -841 -915 -817 -473 24 -808 386 -832 897 -13 295 57 532 221 739 113 143 294 254 486 297 80 18 257 17 348 -2z"></path><path id="phjDWo4L6" d="M1625 14889 c-265 -32 -540 -128 -765 -268 -320 -199 -586 -518 -724 -868 -39 -97 -86 -270 -108 -393 -18 -102 -18 -538 0 -640 39 -221 112 -433 207 -600 300 -532 816 -867 1435 -931 138 -14 395 -7 530 16 350 58 659 199 908 415 157 136 296 322 396 530 l56 115 -358 3 c-196 1 -358 -2 -360 -6 -13 -41 -122 -183 -192 -252 -207 -203 -496 -302 -845 -287 -337 14 -607 128 -826 346 -262 264 -388 645 -358 1093 50 773 613 1264 1374 1198 401 -34 693 -212 883 -535 68 -117 131 -297 148 -426 l7 -49 -687 0 -686 0 0 -240 0 -240 1005 0 1005 0 0 240 c0 275 -12 358 -78 557 -174 518 -559 921 -1072 1119 -93 35 -211 68 -335 91 -98 18 -447 26 -560 12z"></path><path id="pZObugniV" d="M11213 14889 c-351 -41 -695 -186 -966 -406 -97 -80 -241 -234 -320 -344 -80 -111 -204 -356 -246 -487 -62 -188 -91 -383 -91 -607 0 -339 54 -575 195 -860 97 -194 181 -311 335 -465 148 -148 266 -234 450 -329 397 -204 820 -260 1293 -170 461 86 879 363 1120 740 36 56 128 234 147 283 l10 26 -358 0 -357 -1 -45 -81 c-52 -95 -183 -239 -273 -300 -183 -124 -409 -188 -664 -188 -654 0 -1132 421 -1229 1082 -23 156 -15 470 15 610 57 262 170 478 341 648 201 202 445 312 754 341 459 43 852 -136 1056 -481 l53 -90 354 0 c194 0 353 3 353 7 0 21 -127 262 -178 338 -276 410 -739 675 -1284 734 -111 13 -359 12 -465 0z"></path><path id="pxMFPuepz" d="M4260 13425 l0 -1445 300 0 300 0 0 1445 0 1445 -300 0 -300 0 0 -1445z"></path><path id="pTAZum7Hr" d="M5650 12930 l0 -1940 295 0 295 0 0 1940 0 1940 -295 0 -295 0 0 -1940z"></path><path id="p1Cx9SBopc" d="M7040 13425 l0 -1445 295 0 295 0 0 1445 0 1445 -295 0 -295 0 0 -1445z"></path><path id="p1Gitb2NSf" d="M13840 12930 l0 -1940 300 0 300 0 0 1940 0 1940 -300 0 -300 0 0 -1940z"></path><path id="pGAXcZbx1" d="M22030 13425 l0 -1445 295 0 295 0 0 165 c0 91 1 165 3 165 1 0 36 -33 79 -74 128 -124 289 -211 487 -263 131 -35 382 -43 533 -18 233 39 436 134 591 275 127 116 249 319 302 504 52 184 55 240 55 1227 l0 909 -295 0 -294 0 -4 -912 -3 -913 -23 -79 c-93 -325 -308 -495 -646 -513 -245 -13 -429 51 -577 200 -84 84 -149 209 -180 349 -21 90 -22 119 -25 981 l-4 887 -295 0 -294 0 0 -1445z"></path><path id="phbMXFO6S" d="M4434 11572 c-283 -100 -340 -482 -99 -664 69 -52 133 -72 230 -72 114 1 180 28 260 109 83 83 108 146 109 270 1 81 -2 97 -31 157 -39 82 -106 151 -181 186 -75 35 -210 42 -288 14z"></path><path id="p1GJfXjOiu" d="M7213 11576 c-60 -19 -104 -49 -157 -106 -177 -189 -115 -492 122 -603 59 -27 77 -31 152 -31 155 1 275 75 342 212 31 62 33 73 33 167 -1 86 -5 108 -27 155 -35 77 -96 141 -170 180 -57 31 -72 34 -158 37 -60 2 -110 -2 -137 -11z"></path><path id="pB4wwxYpE" d="M12470 8834 c-157 -14 -344 -39 -460 -60 -1317 -242 -2420 -1130 -2893 -2329 -180 -458 -316 -1098 -349 -1647 -3 -45 -2 -46 17 -34 142 91 437 235 618 301 136 50 137 50 142 85 85 527 236 996 442 1366 229 412 544 750 910 976 355 220 767 362 1204 414 162 19 506 22 669 5 326 -34 681 -121 881 -216 l54 -25 -40 5 c-22 3 -101 14 -175 25 -399 58 -883 46 -1290 -31 -474 -91 -869 -251 -1255 -509 -477 -319 -799 -768 -995 -1384 -54 -173 -130 -497 -130 -558 0 -17 4 -19 28 -13 15 4 78 17 141 30 62 14 115 26 118 28 2 3 20 65 39 138 141 546 405 1030 749 1374 348 348 780 573 1295 674 381 75 803 74 1185 -4 802 -162 1438 -629 1796 -1318 66 -128 154 -335 146 -343 -2 -3 -182 45 -400 106 -218 60 -402 110 -409 110 -9 0 -72 -212 -187 -626 -95 -344 -171 -627 -170 -628 8 -7 2940 -818 2944 -815 4 5 815 2925 815 2937 0 5 -283 87 -628 183 l-628 175 -105 -378 c-57 -208 -106 -378 -109 -378 -3 0 -22 35 -42 78 -110 231 -307 540 -485 762 -214 268 -590 621 -878 827 -493 352 -1102 582 -1785 673 -119 16 -222 22 -445 25 -159 1 -310 1 -335 -1z m250 -529 c306 -42 601 -118 870 -224 77 -30 371 -174 366 -178 -2 -3 -62 14 -133 37 -317 103 -668 176 -983 206 -201 20 -622 14 -800 -10 -669 -92 -1166 -312 -1620 -718 -306 -273 -579 -647 -799 -1093 -160 -324 -272 -622 -367 -975 -22 -80 -40 -135 -42 -122 -5 34 26 292 54 442 109 591 333 1129 649 1555 466 628 1176 1013 2020 1095 141 13 651 4 785 -15z"></path><path id="pvjHFhE3d" d="M12030 7135 c-533 -156 -958 -507 -1258 -1040 -113 -201 -243 -533 -296 -758 l-7 -28 88 6 c48 3 111 8 139 11 l52 5 7 45 c3 24 21 104 40 176 115 452 317 825 586 1083 207 197 429 352 684 476 66 33 111 59 100 58 -11 0 -72 -15 -135 -34z"></path><path id="pHFztk8tW" d="M15981 2603 c-65 -23 -130 -94 -165 -178 -109 -262 -283 -554 -475 -795 -93 -117 -347 -373 -461 -464 -527 -421 -1144 -634 -1775 -613 -412 14 -750 102 -1125 292 -139 71 -344 201 -410 261 -111 100 -112 277 -2 376 20 18 165 98 321 178 232 118 294 154 336 195 90 88 134 221 115 342 -10 59 -82 223 -98 223 -15 0 -477 -232 -637 -319 -728 -400 -1402 -897 -1855 -1368 l-130 -135 81 -67 c143 -117 246 -153 371 -131 94 17 147 50 296 184 309 279 345 300 492 294 111 -4 161 -28 308 -147 456 -368 986 -603 1567 -693 166 -25 557 -36 730 -19 1158 112 2182 848 2746 1972 116 232 142 303 137 373 -5 76 -30 129 -85 183 -72 69 -182 91 -282 56z"></path></g></g><g id="l5JKaH6m0lvPJkCUun06N1c" fill="rgb(90,180,194)" style="transform: none;"><g style="transform: none;"><path id="p192qrR5DE" d="M15084 17370 c-202 -30 -358 -162 -416 -353 -17 -57 -20 -87 -16 -182 4 -110 6 -117 46 -198 201 -405 796 -373 944 52 10 31 22 94 25 141 18 288 -182 521 -467 543 -36 3 -88 2 -116 -3z m233 -170 c137 -67 205 -218 182 -403 -11 -88 -37 -145 -94 -206 -58 -61 -127 -93 -221 -99 -162 -10 -289 67 -347 212 -17 40 -21 74 -22 161 0 100 3 115 28 170 29 63 81 123 133 155 92 57 235 61 341 10z"></path><path id="pyLrPimbI" d="M18394 17370 c-175 -26 -317 -129 -389 -282 -142 -301 21 -648 337 -723 304 -72 592 125 630 430 20 163 -24 303 -133 420 -112 119 -284 179 -445 155z m222 -164 c67 -31 129 -94 163 -165 24 -51 26 -67 26 -176 0 -111 -2 -125 -29 -182 -33 -72 -95 -134 -164 -166 -38 -18 -66 -22 -147 -22 -89 0 -106 4 -157 28 -115 56 -179 164 -186 313 -8 172 53 297 178 364 83 45 226 47 316 6z"></path><path id="pk5ns4d8i" d="M19450 17369 c-119 -20 -221 -93 -269 -193 -34 -69 -41 -159 -41 -493 l0 -323 79 0 80 0 3 358 c3 317 5 361 21 397 32 71 69 98 159 115 113 22 222 -24 261 -108 21 -45 22 -63 25 -404 l3 -358 80 0 79 0 0 323 c0 177 -5 351 -10 386 -18 105 -70 190 -148 239 -88 56 -214 79 -322 61z"></path><path id="pbKE1lct0" d="M5034 17357 c-2 -7 -67 -233 -143 -503 l-138 -489 79 -3 c44 -2 83 -1 85 2 3 3 50 179 104 393 104 411 107 419 115 411 4 -4 155 -546 213 -765 l12 -43 89 0 88 0 11 33 c5 17 51 194 102 392 50 198 95 367 99 375 6 11 10 7 16 -15 4 -17 51 -199 104 -405 l97 -375 86 -3 c67 -2 86 0 82 10 -2 7 -66 220 -140 473 -75 253 -141 475 -146 493 l-11 32 -88 0 -88 0 -11 -32 c-6 -18 -53 -188 -105 -377 -53 -189 -98 -346 -100 -349 -5 -5 -24 56 -141 456 l-89 302 -88 0 c-64 0 -90 -4 -94 -13z"></path><path id="pLtuO1pZR" d="M6280 16865 l0 -505 275 0 275 0 0 65 0 65 -195 0 -195 0 0 150 0 150 175 0 175 0 0 65 0 65 -175 0 -175 0 0 160 0 160 195 0 195 0 0 65 0 65 -275 0 -275 0 0 -505z"></path><path id="pZCV3wMGg" d="M7720 17351 c-91 -29 -142 -61 -210 -130 -281 -284 -142 -765 246 -857 223 -52 464 49 559 235 l25 51 -94 0 -94 0 -35 -49 c-25 -35 -52 -57 -94 -77 -52 -26 -68 -29 -153 -29 -75 1 -105 5 -142 22 -69 32 -131 94 -164 166 -27 57 -29 71 -29 182 0 111 2 124 28 177 52 107 136 169 254 188 70 12 154 0 210 -29 39 -20 113 -92 113 -111 0 -6 40 -10 101 -10 l100 0 -28 51 c-57 106 -169 191 -294 224 -76 21 -230 18 -299 -4z"></path><path id="pPFwivfJL" d="M8540 16865 l0 -505 80 0 80 0 0 440 0 440 170 0 170 0 0 65 0 65 -250 0 -250 0 0 -505z"></path><path id="p6pBh8CD4" d="M9180 16865 l0 -505 275 0 275 0 0 65 0 65 -195 0 -195 0 0 150 0 150 175 0 175 0 0 65 0 65 -175 0 -175 0 0 160 0 160 195 0 195 0 0 65 0 65 -275 0 -275 0 0 -505z"></path><path id="pR2lIkeN5" d="M10064 16865 l181 -506 93 3 94 3 179 500 c98 275 179 501 179 503 0 1 -38 2 -83 2 l-84 0 -35 -102 -35 -103 -216 -3 -216 -2 -7 22 c-3 13 -20 60 -36 106 l-30 82 -83 0 -82 0 181 -505z m436 158 c0 -13 -153 -447 -160 -456 -4 -4 -42 93 -85 215 -43 123 -80 229 -83 236 -3 9 33 12 162 12 91 0 166 -3 166 -7z"></path><path id="pAeA0vR2V" d="M10950 16865 l0 -505 83 0 82 1 250 377 250 377 3 -377 2 -378 80 0 80 0 0 505 0 505 -81 0 -80 0 -247 -375 c-136 -206 -250 -374 -254 -375 -5 0 -8 169 -8 375 l0 375 -80 0 -80 0 0 -505z"></path><path id="ptbV3Iane" d="M12380 16865 l0 -505 80 0 80 0 0 505 0 505 -80 0 -80 0 0 -505z"></path><path id="phFhwaPot" d="M12980 16930 l0 -440 -135 0 -135 0 0 -65 0 -65 345 0 345 0 0 65 0 65 -130 0 -130 0 0 440 0 440 -80 0 -80 0 0 -440z"></path><path id="pfiPLBRgN" d="M13950 16865 l0 -505 295 0 295 0 0 65 0 65 -215 0 -215 0 0 150 0 150 170 0 170 0 0 65 0 65 -170 0 -170 0 0 225 0 225 -80 0 -80 0 0 -505z"></path><path id="p1ESjTOb7m" d="M15840 16864 l0 -506 223 4 c199 4 228 7 278 27 122 47 192 146 193 271 1 119 -54 209 -160 261 -46 23 -63 36 -59 47 3 8 55 98 117 201 61 102 113 189 115 194 2 4 -38 7 -90 7 l-94 0 -118 -205 -117 -205 -64 0 -64 0 0 205 0 205 -80 0 -80 0 0 -506z m444 -49 c58 -29 79 -64 84 -139 4 -68 -8 -104 -50 -143 -34 -31 -90 -43 -210 -43 l-108 0 0 176 0 176 123 -4 c95 -3 131 -8 161 -23z"></path><path id="p4CYYodzB" d="M17380 17186 l0 -184 -165 -316 c-91 -173 -165 -318 -165 -321 0 -3 39 -4 87 -3 l87 3 115 243 c63 133 117 242 121 242 3 0 57 -110 120 -245 l115 -245 88 0 87 0 -21 43 c-12 23 -86 166 -165 318 l-144 276 0 187 0 186 -80 0 -80 0 0 -184z"></path><path id="pAJUc9wJT" d="M8920 7032 c-20 -9 -44 -33 -54 -53 -40 -75 17 -159 108 -159 53 0 106 52 106 104 0 51 -23 90 -64 110 -43 20 -53 20 -96 -2z m110 -49 c24 -31 23 -66 -2 -71 -11 -2 -18 5 -20 20 -2 13 -15 28 -30 36 -38 18 -37 42 1 42 20 0 36 -9 51 -27z"></path><path id="pXNWrLdl5" d="M8192 6694 l-34 -27 -28 22 c-39 28 -46 27 -21 -5 27 -34 26 -40 -6 -83 l-27 -35 35 27 c43 32 49 33 83 6 32 -25 33 -18 5 20 l-21 29 27 36 c33 43 31 44 -13 10z"></path><path id="pQgqz9KfI" d="M7510 6244 c0 -3 9 -17 20 -31 20 -25 20 -25 0 -53 -28 -39 -25 -44 9 -19 28 21 31 21 55 5 35 -22 39 -20 20 9 -15 22 -15 29 -3 53 7 15 15 31 17 36 3 5 -10 -2 -27 -15 l-31 -23 -30 22 c-16 13 -30 20 -30 16z"></path><path id="p175rSPkk6" d="M8364 6146 c-27 -27 -34 -42 -34 -72 0 -53 30 -99 75 -114 64 -21 126 13 146 79 22 73 -34 141 -117 141 -28 0 -44 -8 -70 -34z m130 -17 c17 -14 26 -30 26 -50 0 -38 -24 -39 -42 -1 -7 15 -23 28 -36 30 -12 2 -22 9 -22 16 0 32 36 35 74 5z"></path><path id="poniR2yLE" d="M11467 6060 c-117 -64 -138 -212 -43 -306 73 -74 171 -80 253 -18 103 79 95 239 -15 315 -48 33 -142 37 -195 9z m165 -57 c47 -23 80 -110 52 -138 -26 -26 -37 -17 -63 48 -6 15 -23 32 -38 38 -65 26 -74 37 -48 63 18 17 49 14 97 -11z"></path><path id="p1AflldDsS" d="M7695 5681 c-155 -70 -161 -278 -10 -351 124 -60 263 21 273 159 11 147 -133 252 -263 192z m142 -61 c37 -22 58 -53 67 -96 12 -57 -50 -76 -65 -20 -10 36 -37 66 -60 66 -29 0 -51 28 -39 51 14 25 56 25 97 -1z"></path><path id="p5dmtuZpe" d="M11222 5509 l27 -35 -26 -39 -26 -38 37 28 36 27 36 -27 37 -28 -26 38 -26 39 27 35 27 36 -25 -18 c-36 -25 -48 -30 -62 -23 -7 3 -24 14 -38 23 l-25 18 27 -36z"></path><path id="p4rPOTeOT" d="M12074 5511 c-60 -37 -69 -123 -18 -175 52 -51 138 -42 175 18 64 104 -53 221 -157 157z m99 -22 c40 -18 62 -81 32 -92 -9 -4 -19 4 -27 21 -7 15 -25 33 -40 40 -17 8 -25 18 -21 27 6 18 23 19 56 4z"></path><path id="p1Dm1Jajdp" d="M8261 5390 c25 -36 49 -70 52 -76 4 -7 -12 -38 -36 -70 -56 -77 -65 -93 -46 -78 8 6 40 30 73 54 l58 42 77 -53 c42 -29 71 -46 65 -38 -65 86 -95 132 -90 142 3 7 26 41 53 76 l47 65 -76 -53 -76 -53 -58 42 c-33 24 -66 48 -74 54 -8 6 6 -18 31 -54z"></path><path id="p12OCzZ0ob" d="M6903 5217 l58 -78 -51 -69 c-27 -39 -48 -70 -45 -70 3 0 32 20 66 45 34 25 66 45 71 45 6 0 42 -23 80 -51 l70 -51 -52 75 c-34 49 -50 80 -44 89 4 7 25 36 46 65 21 29 38 55 38 58 0 3 -29 -14 -64 -39 -35 -26 -69 -46 -75 -46 -10 0 -66 38 -140 94 -8 6 11 -24 42 -67z"></path><path id="pOtauoEfV" d="M10607 5040 c-48 -4 -89 -9 -91 -11 -5 -6 -33 -210 -48 -349 -8 -70 -13 -260 -13 -482 0 -203 -1 -368 -3 -368 -12 0 -86 263 -116 416 -39 196 -56 350 -63 562 -5 153 -9 192 -20 192 -40 0 -347 -67 -478 -105 -391 -112 -776 -299 -1093 -531 -124 -92 -293 -238 -406 -352 l-89 -90 22 -87 c12 -48 33 -114 46 -146 13 -32 20 -59 16 -59 -4 0 -43 40 -87 90 -43 49 -82 90 -85 90 -11 0 -162 -199 -237 -311 -140 -210 -318 -558 -353 -691 -12 -44 -11 -45 31 -109 235 -347 560 -685 935 -969 246 -187 548 -372 850 -520 172 -84 480 -214 495 -208 4 2 34 37 68 78 286 356 1004 856 1802 1255 96 48 176 88 177 89 2 1 -17 47 -41 102 -133 301 -189 605 -189 1019 0 423 64 847 194 1294 22 73 38 135 37 136 -5 4 -253 35 -298 38 l-45 2 -66 -199 c-37 -110 -90 -296 -119 -415 -66 -274 -66 -273 -75 -186 -17 151 8 542 48 752 l13 70 -89 7 c-113 8 -513 5 -630 -4z"></path><path id="pCpwtEPRQ" d="M7970 4734 c-45 -20 -68 -41 -90 -84 -42 -85 -27 -173 39 -233 91 -82 212 -70 287 29 23 30 29 49 32 103 3 59 0 71 -26 112 -51 79 -155 111 -242 73z m151 -60 c33 -16 56 -51 64 -97 6 -30 4 -37 -15 -47 -25 -13 -50 1 -50 29 0 28 -29 60 -63 69 -23 6 -33 15 -35 31 -6 42 34 48 99 15z"></path><path id="pijmwWLxB" d="M6956 4494 c-74 -23 -159 -113 -181 -189 -42 -143 37 -303 173 -349 191 -66 383 70 383 270 0 192 -190 327 -375 268z m189 -97 c52 -29 93 -90 101 -148 6 -43 4 -48 -20 -64 -24 -16 -28 -16 -51 -1 -17 11 -25 26 -25 45 0 40 -34 79 -83 93 -23 6 -48 16 -54 21 -16 12 -17 49 -1 65 19 19 89 14 133 -11z"></path></g></g></svg>