<svg class="img-fluid" id="outputsvg" xmlns="http://www.w3.org/2000/svg" style="transform: matrix(0.769231, 0, 0, 0.769231, 0, 0); transform-origin: 50% 50%; cursor: move;" width="1888" height="1497" viewBox="0 0 18880 14970"><g id="l412x0g1A35hsOGCB1SyIXp" fill="rgb(0,88,124)" style="transform: none;"><g style="transform: none;"><path id="pAy6AoZEO" d="M9750 14949 c-1436 -80 -2801 -607 -3895 -1504 -916 -751 -1597 -1726 -1970 -2825 -84 -247 -218 -738 -285 -1045 -91 -417 -174 -1015 -196 -1414 l-7 -125 34 21 c359 221 793 427 1187 563 72 26 93 37 97 54 2 11 18 107 35 211 236 1430 832 2618 1690 3369 703 617 1628 1012 2620 1121 786 86 1683 -16 2389 -272 133 -48 291 -118 291 -128 0 -4 -8 -4 -17 -1 -43 13 -334 57 -498 75 -698 78 -1441 46 -2105 -90 -892 -183 -1687 -547 -2355 -1077 -149 -118 -442 -410 -559 -557 -516 -649 -853 -1466 -1030 -2497 -4 -21 -4 -38 0 -38 3 0 34 7 68 16 33 9 144 33 245 54 l183 37 38 149 c357 1415 1090 2464 2144 3068 603 346 1354 548 2161 582 174 7 510 -8 725 -31 1602 -177 2885 -1049 3546 -2410 89 -185 202 -460 193 -470 -3 -2 -315 81 -693 186 -378 105 -690 188 -693 185 -7 -7 -596 -2127 -591 -2130 2 -1 1124 -313 2493 -693 2184 -606 2491 -689 2498 -674 10 22 1377 4949 1377 4964 0 16 -2117 604 -2129 591 -5 -5 -87 -291 -182 -636 -96 -346 -176 -628 -179 -628 -3 0 -46 82 -97 183 -461 916 -1049 1639 -1908 2347 -766 631 -1506 998 -2560 1270 -642 165 -1385 237 -2065 199z m53 -874 c790 -64 1506 -263 2197 -610 91 -46 174 -90 185 -99 11 -8 -54 9 -145 40 -669 224 -1324 355 -1975 395 -234 14 -719 6 -935 -16 -806 -81 -1497 -289 -2115 -634 -545 -305 -1090 -797 -1524 -1376 -553 -739 -998 -1697 -1272 -2740 -62 -236 -71 -256 -63 -145 65 974 407 2085 890 2886 220 366 419 627 684 898 290 296 551 503 895 711 666 402 1402 631 2230 694 194 14 748 12 948 -4z"></path><path id="p18nTu6mBe" d="M9075 12114 c-423 -105 -741 -243 -1087 -470 -388 -255 -726 -599 -1012 -1029 -238 -358 -433 -768 -579 -1220 -60 -187 -121 -405 -114 -411 2 -2 55 0 118 5 63 5 166 13 230 16 l117 7 12 62 c133 693 393 1323 736 1779 180 239 346 406 629 634 311 250 706 489 1020 618 140 58 130 59 -70 9z"></path><path id="p79XDrzGx" d="M15665 4426 c-87 -21 -147 -57 -220 -130 -67 -67 -74 -80 -145 -241 -432 -989 -1100 -1797 -1950 -2360 -1442 -955 -3206 -1016 -4700 -163 -166 95 -446 285 -514 349 -100 93 -144 207 -133 344 9 124 78 250 169 313 24 16 243 132 488 257 245 126 468 243 497 262 127 83 240 246 279 403 21 84 22 227 0 310 -9 36 -45 125 -81 198 -60 122 -67 133 -87 127 -55 -16 -886 -437 -1117 -565 -1161 -647 -2146 -1360 -2920 -2115 -165 -161 -383 -394 -379 -406 2 -4 64 -57 138 -119 203 -168 324 -220 510 -220 115 0 202 19 295 66 80 39 131 79 308 245 167 155 419 372 487 417 189 126 467 125 662 -1 29 -19 89 -65 133 -102 44 -37 148 -118 230 -180 1370 -1031 3098 -1361 4704 -900 1306 375 2452 1230 3256 2430 204 304 417 692 564 1030 77 174 91 222 91 306 0 290 -284 513 -565 445z"></path></g></g><g id="l2q1K2YtPlvbc3j8M7XQ3xu" fill="rgb(90,180,194)" style="transform: none;"><g style="transform: none;"><path id="pjW7buA1j" d="M3648 11900 c-69 -37 -116 -128 -103 -198 32 -172 228 -229 342 -99 66 75 64 181 -6 261 -49 55 -162 73 -233 36z m179 -66 c38 -29 63 -96 46 -122 -13 -21 -43 -22 -53 -2 -31 67 -38 76 -70 86 -24 8 -36 19 -38 34 -7 47 56 48 115 4z"></path><path id="pkZtFlwpC" d="M2250 11365 c0 -4 18 -32 40 -62 22 -31 37 -61 33 -67 -4 -6 -24 -35 -45 -63 -21 -29 -36 -53 -33 -53 3 0 30 18 59 40 29 22 58 40 65 40 6 0 36 -18 66 -40 30 -22 57 -40 60 -40 3 0 -15 27 -40 61 -25 34 -42 66 -38 73 3 6 21 32 40 57 18 26 33 50 33 53 0 4 -27 -12 -60 -36 l-60 -42 -60 42 c-33 24 -60 40 -60 37z"></path><path id="p122E6jvKO" d="M1288 10534 l50 -69 -46 -64 c-48 -67 -46 -68 29 -14 26 18 51 33 56 33 5 0 38 -21 73 -47 l64 -46 -47 66 c-26 36 -47 69 -47 73 0 4 18 31 40 60 22 29 40 56 40 59 0 3 -25 -12 -57 -34 -31 -23 -61 -41 -66 -41 -5 0 -39 21 -74 46 l-65 47 50 -69z"></path><path id="ps2f7MXKJ" d="M2760 10438 c-63 -34 -104 -102 -104 -173 0 -41 6 -63 29 -101 99 -160 337 -104 362 85 8 58 -33 141 -87 177 -60 40 -139 44 -200 12z m171 -61 c41 -27 70 -97 53 -125 -14 -21 -44 -22 -54 -2 -30 65 -38 74 -69 85 -36 12 -47 26 -37 50 8 23 68 18 107 -8z"></path><path id="pYWEMaLlL" d="M8030 10281 c-90 -29 -174 -104 -213 -189 -17 -36 -22 -66 -22 -132 0 -66 5 -96 22 -132 30 -66 96 -133 162 -165 48 -24 68 -28 141 -28 73 0 93 4 141 28 63 30 125 92 161 159 19 36 23 58 23 138 0 84 -3 101 -28 147 -60 115 -154 175 -282 179 -44 2 -91 0 -105 -5z m213 -124 c57 -34 98 -100 105 -168 5 -57 -8 -79 -49 -79 -34 0 -59 23 -59 56 0 14 -7 38 -15 54 -17 33 -61 60 -99 60 -13 0 -32 7 -40 16 -19 19 -21 65 -3 83 20 21 107 9 160 -22z"></path><path id="pR1oVJwpM" d="M1593 9620 c-71 -28 -146 -98 -180 -168 -24 -49 -28 -69 -28 -142 0 -101 20 -154 85 -224 89 -96 233 -131 354 -86 72 28 147 95 184 165 24 44 27 62 27 145 0 83 -3 101 -27 145 -34 64 -90 120 -153 153 -70 36 -188 41 -262 12z m212 -99 c82 -37 140 -127 133 -207 -2 -29 -9 -41 -27 -50 -46 -23 -70 -1 -85 77 -7 33 -52 78 -85 85 -68 13 -76 19 -79 52 -2 18 2 40 9 48 16 20 86 17 134 -5z"></path><path id="pSklD9gwO" d="M7543 9330 c26 -35 47 -68 47 -74 0 -5 -18 -33 -40 -62 -22 -29 -40 -56 -40 -59 0 -3 28 14 62 39 l63 44 64 -45 c67 -49 68 -47 14 28 -18 26 -33 51 -33 56 0 5 18 35 41 66 22 32 37 57 34 57 -3 0 -30 -18 -60 -40 -30 -22 -57 -40 -60 -40 -4 0 -36 21 -72 47 l-66 47 46 -64z"></path><path id="pJUL1BjgE" d="M9012 9334 c-70 -35 -107 -95 -107 -176 0 -47 5 -64 31 -100 41 -59 95 -88 164 -88 216 0 269 290 68 374 -53 23 -97 20 -156 -10z m179 -70 c33 -32 53 -85 44 -114 -9 -28 -58 -24 -63 5 -6 42 -26 65 -64 75 -30 9 -38 16 -38 34 0 12 3 26 8 30 15 16 84 -3 113 -30z"></path><path id="p1AwJQSkCN" d="M2550 9106 c49 -69 90 -127 90 -130 0 -3 -41 -63 -91 -132 -50 -69 -84 -123 -77 -118 7 4 66 45 130 91 l117 84 126 -91 c69 -49 125 -87 125 -84 0 3 -38 58 -85 123 -47 65 -85 121 -85 126 0 4 39 62 86 127 47 66 84 121 82 123 -2 2 -58 -37 -126 -86 l-123 -88 -125 90 c-68 49 -126 89 -129 89 -3 0 35 -56 85 -124z"></path><path id="p62sx6mMC" d="M171 8929 c34 -45 153 -211 162 -225 4 -7 -35 -70 -89 -144 l-95 -132 58 41 c32 23 92 66 134 96 l76 54 84 -61 c46 -34 107 -77 134 -97 l50 -36 -36 50 c-20 28 -63 88 -97 134 l-61 84 54 76 c30 42 73 102 96 134 l41 58 -132 -95 c-74 -54 -137 -93 -144 -89 -6 4 -67 47 -136 97 -101 72 -120 83 -99 55z"></path><path id="pmY8CJVq7" d="M6680 8539 c-85 -5 -193 -12 -240 -16 l-84 -8 -8 -45 c-79 -452 -117 -1100 -98 -1674 6 -175 8 -321 6 -323 -7 -8 -103 294 -140 444 -111 442 -166 874 -166 1314 l0 236 -87 -14 c-472 -74 -983 -218 -1423 -400 -722 -300 -1394 -761 -1928 -1324 l-91 -95 20 -89 c25 -115 64 -243 100 -327 15 -38 24 -68 20 -68 -12 0 -176 174 -238 251 l-48 60 -38 -43 c-65 -73 -272 -351 -365 -490 -182 -273 -355 -586 -477 -862 -68 -156 -145 -356 -145 -380 0 -20 193 -296 326 -466 748 -960 1893 -1814 3156 -2354 149 -64 437 -176 451 -176 3 0 38 41 78 92 374 475 1053 1006 2014 1580 370 220 841 477 1218 665 115 57 157 82 153 93 -2 8 -31 74 -64 145 -373 806 -431 1945 -166 3239 57 278 168 704 228 874 8 23 12 42 8 42 -4 0 -103 14 -220 30 -117 17 -247 31 -289 33 l-76 2 -48 -132 c-125 -343 -281 -900 -359 -1288 -11 -54 -14 -58 -22 -35 -5 14 -12 138 -15 275 -8 358 16 678 78 1044 16 96 28 175 27 176 -2 2 -111 8 -243 14 -267 12 -570 12 -805 0z"></path><path id="pYiJYpRND" d="M2078 8025 c-135 -51 -219 -172 -219 -313 0 -90 26 -155 88 -223 73 -78 132 -104 243 -104 68 0 94 5 131 23 75 37 125 87 161 160 29 59 33 76 32 147 0 66 -5 90 -27 136 -31 63 -93 126 -159 160 -55 29 -193 36 -250 14z m200 -101 c73 -30 127 -103 138 -187 7 -51 -11 -77 -55 -77 -35 0 -46 13 -55 64 -10 53 -63 106 -105 106 -34 0 -71 30 -71 57 0 50 74 68 148 37z"></path><path id="pVakhf39U" d="M360 7611 c-84 -27 -138 -58 -196 -113 -105 -99 -154 -211 -154 -351 0 -133 43 -244 129 -334 95 -98 193 -143 327 -150 100 -6 168 8 258 54 63 32 163 132 198 199 147 275 -4 620 -307 699 -78 20 -186 18 -255 -4z m272 -159 c102 -45 184 -157 195 -269 7 -65 -7 -98 -49 -112 -57 -20 -97 13 -109 90 -8 53 -42 108 -84 135 -12 8 -47 19 -76 23 -67 11 -104 48 -95 95 10 52 41 69 112 63 33 -2 81 -14 106 -25z"></path></g></g></svg>