<?xml version="1.0" encoding="utf-8"?>
<!DOCTYPE svg PUBLIC "-//W3C//DTD SVG 1.0//EN" "http://www.w3.org/TR/2001/REC-SVG-20010904/DTD/svg10.dtd">
<svg version="1.0" xmlns="http://www.w3.org/2000/svg" width="3608" height="936" viewBox="0 0 36080 9360">
  <g fill="#E2E8EB" stroke="#E2E8EB" stroke-width="1" fill-rule="evenodd">
    <g>
      <path  d="M14075 7740 C13834 7706 13652 7549 13583 7315 C13556 7223 13559 7055 13588 6965 C13639 6809 13744 6684 13880 6618 C14266 6430 14703 6656 14749 7069 C14774 7286 14695 7492 14540 7613 C14407 7718 14239 7764 14075 7740 M14049 7565 C13976 7543 13942 7523 13884 7468 C13721 7314 13718 6994 13877 6833 C13994 6714 14192 6686 14351 6765 C14548 6864 14621 7172 14499 7386 C14459 7455 14382 7523 14314 7549 C14241 7577 14115 7584 14049 7565 "/>
      <path  d="M26737 7740 C26624 7724 26534 7678 26477 7608 C26436 7556 26410 7492 26410 7444 L26410 7410 26509 7410 L26608 7410 26620 7447 C26651 7545 26720 7585 26843 7577 C26931 7572 26975 7549 27007 7491 C27068 7384 27005 7287 26846 7240 C26566 7157 26550 7150 26489 7089 C26440 7040 26420 6992 26413 6909 C26404 6803 26427 6738 26503 6663 C26586 6581 26659 6555 26810 6555 C26957 6555 27029 6580 27118 6664 C27160 6704 27177 6732 27199 6798 C27222 6870 27222 6871 27104 6867 C27047 6866 27000 6861 27000 6857 C27000 6852 26991 6832 26980 6812 C26920 6706 26749 6681 26654 6763 C26618 6794 26615 6800 26611 6863 L26607 6930 26648 6969 C26677 6997 26710 7014 26766 7032 C26809 7046 26882 7069 26928 7084 C26974 7099 27033 7120 27058 7132 C27120 7161 27184 7229 27204 7286 C27225 7348 27224 7452 27202 7514 C27182 7569 27115 7650 27059 7685 C26983 7732 26846 7756 26737 7740 "/>
      <path  d="M27927 7745 C27751 7718 27660 7674 27547 7563 C27446 7462 27390 7316 27390 7153 C27390 7032 27403 6972 27451 6872 C27629 6508 28148 6439 28427 6743 C28519 6845 28566 6956 28576 7100 C28597 7399 28417 7658 28142 7724 C28068 7742 27972 7751 27927 7745 M27902 7574 C27892 7571 27863 7561 27837 7553 C27778 7534 27701 7474 27662 7417 C27543 7243 27561 6972 27702 6830 C27848 6683 28115 6683 28261 6830 C28342 6912 28380 7014 28380 7151 C28380 7395 28233 7561 28005 7575 C27958 7577 27912 7577 27902 7574 "/>
      <path  d="M29882 7740 C29745 7718 29632 7649 29573 7550 C29515 7454 29510 7406 29510 6965 L29510 6570 29605 6570 L29700 6570 29700 6954 C29700 7190 29704 7358 29710 7389 C29724 7453 29767 7511 29826 7546 C29868 7570 29883 7574 29959 7574 C30058 7574 30121 7551 30170 7498 C30226 7436 30230 7407 30230 6968 L30230 6570 30325 6570 L30420 6570 30419 6977 C30419 7215 30415 7403 30409 7428 C30385 7534 30311 7634 30223 7681 C30127 7734 29989 7757 29882 7740 "/>
      <path  d="M32515 7740 C32369 7720 32272 7672 32169 7570 C32091 7492 32048 7418 32018 7315 C31997 7238 32000 7029 32023 6960 C32141 6609 32524 6453 32870 6615 C32967 6661 33080 6772 33128 6870 C33211 7040 33209 7267 33122 7432 C33049 7572 32934 7667 32784 7713 C32683 7745 32602 7753 32515 7740 M32499 7570 C32436 7555 32341 7500 32302 7455 C32188 7324 32162 7082 32246 6921 C32277 6860 32351 6790 32417 6758 C32480 6727 32491 6725 32590 6725 C32675 6725 32705 6729 32752 6748 C32858 6790 32945 6895 32979 7021 C32998 7093 32988 7260 32960 7332 C32905 7475 32779 7565 32620 7575 C32576 7577 32521 7575 32499 7570 "/>
      <path  d="M34891 7740 C34799 7727 34721 7691 34658 7633 C34603 7581 34575 7529 34564 7455 L34557 7410 34663 7410 C34764 7410 34770 7411 34770 7430 C34770 7476 34828 7548 34883 7569 C34898 7575 34941 7580 34978 7580 C35094 7580 35167 7527 35177 7436 C35184 7374 35175 7347 35135 7307 C35100 7272 35060 7256 34860 7199 C34722 7160 34632 7103 34595 7030 C34574 6990 34559 6894 34566 6842 C34574 6778 34612 6701 34654 6658 C34779 6533 35055 6514 35217 6618 C35298 6671 35358 6765 35359 6842 L35360 6870 35256 6870 L35152 6870 35146 6840 C35139 6805 35088 6753 35040 6732 C34984 6707 34892 6711 34840 6740 C34771 6779 34738 6870 34771 6933 C34800 6989 34845 7013 35022 7065 C35172 7109 35237 7138 35288 7184 C35414 7298 35404 7526 35267 7646 C35215 7692 35129 7729 35050 7740 C34964 7752 34974 7752 34891 7740 "/>
      <path  d="M18109 7724 C18009 7695 17927 7647 17854 7575 C17724 7447 17673 7308 17682 7115 C17689 6986 17711 6911 17771 6818 C17905 6610 18144 6514 18404 6564 C18556 6593 18681 6675 18761 6798 C18832 6906 18832 6905 18695 6901 C18596 6899 18580 6896 18575 6881 C18564 6847 18486 6777 18430 6751 C18382 6729 18361 6725 18270 6725 C18177 6725 18158 6729 18107 6752 C17897 6849 17812 7126 17922 7358 C18010 7546 18239 7629 18429 7543 C18493 7515 18520 7492 18561 7432 L18590 7390 18700 7390 C18787 7390 18810 7392 18810 7404 C18810 7458 18664 7627 18580 7669 C18485 7718 18434 7729 18295 7735 C18192 7738 18147 7736 18109 7724 "/>
      <path  d="M23040 7150 L23040 6560 23140 6560 L23240 6560 23240 7150 L23240 7740 23140 7740 L23040 7740 23040 7150 "/>
      <path  d="M25067 7724 C24880 7670 24732 7529 24664 7340 C24642 7279 24633 7097 24649 7017 C24667 6924 24728 6804 24793 6737 C24943 6582 25148 6520 25367 6565 C25522 6597 25641 6676 25721 6798 C25792 6906 25792 6905 25657 6901 L25545 6897 25505 6847 C25444 6772 25370 6737 25257 6731 C25154 6726 25099 6739 25018 6786 C24922 6843 24860 6943 24839 7077 C24809 7272 24902 7461 25065 7536 C25165 7582 25321 7579 25421 7529 C25500 7489 25582 7375 25596 7285 L25602 7250 25386 7250 L25170 7250 25170 7170 L25170 7090 25490 7090 L25810 7090 25810 7184 C25810 7257 25804 7293 25785 7350 C25723 7532 25571 7676 25387 7724 C25311 7744 25136 7744 25067 7724 "/>
      <path  d="M31600 7150 L31600 6560 31710 6560 L31820 6560 31820 7150 L31820 7740 31710 7740 L31600 7740 31600 7150 "/>
      <path  d="M12440 7150 L12440 6570 12534 6570 L12629 6570 12632 6817 L12635 7065 12907 7067 L13180 7070 13180 6820 L13180 6570 13275 6570 L13370 6570 13370 7150 L13370 7730 13275 7730 L13180 7730 13180 7474 L13180 7219 12907 7222 L12635 7225 12632 7477 L12630 7730 12535 7730 L12440 7730 12440 7150 "/>
      <path  d="M14940 7150 L14940 6570 15050 6570 C15110 6570 15160 6574 15160 6579 C15160 6584 15176 6623 15196 6666 C15216 6709 15276 6844 15330 6965 C15438 7210 15466 7271 15516 7378 C15534 7418 15550 7455 15550 7460 C15550 7465 15553 7470 15557 7470 C15564 7470 15568 7462 15608 7370 C15618 7345 15636 7304 15648 7280 C15688 7192 15826 6882 15895 6727 L15964 6570 16067 6570 L16170 6570 16170 7150 L16170 7730 16075 7730 L15980 7730 15977 7339 L15975 6949 15802 7337 L15630 7725 15559 7725 L15487 7725 15398 7525 C15349 7415 15302 7309 15293 7290 C15283 7270 15248 7190 15214 7111 C15180 7033 15149 6966 15146 6962 C15142 6959 15140 7130 15140 7343 L15140 7730 15040 7730 L14940 7730 14940 7150 "/>
      <path  d="M16420 7145 L16420 6560 16745 6560 L17070 6560 17070 6640 L17070 6720 16845 6720 L16620 6720 16620 6890 L16620 7060 16820 7060 L17020 7060 17020 7140 L17020 7220 16820 7220 L16620 7220 16620 7400 L16620 7580 16845 7580 L17070 7580 17070 7655 L17070 7730 16745 7730 L16420 7730 16420 7145 "/>
      <path  d="M19040 7150 L19040 6570 19135 6570 L19230 6570 19230 7075 L19230 7580 19430 7580 L19630 7580 19630 7655 L19630 7730 19335 7730 L19040 7730 19040 7150 "/>
      <path  d="M19790 7145 L19790 6560 20110 6560 L20430 6560 20430 6640 L20430 6720 20205 6720 L19980 6720 19980 6890 L19980 7060 20180 7060 L20380 7060 20380 7140 L20380 7220 20180 7220 L19980 7220 19980 7400 L19980 7580 20205 7580 L20430 7580 20430 7655 L20430 7730 20110 7730 L19790 7730 19790 7145 "/>
      <path  d="M20600 7724 C20600 7722 20620 7662 20645 7592 C20670 7522 20713 7404 20739 7330 C20766 7255 20818 7111 20854 7010 C20891 6908 20942 6765 20967 6692 L21013 6560 21125 6560 L21237 6560 21269 6652 C21349 6876 21433 7112 21464 7200 C21526 7370 21637 7684 21644 7707 C21651 7729 21650 7730 21551 7730 C21437 7730 21457 7749 21398 7582 L21365 7490 21124 7490 L20882 7490 20841 7610 L20800 7730 20700 7730 C20645 7730 20600 7727 20600 7724 M20940 7331 C20940 7327 20956 7278 20975 7224 C20995 7169 21033 7059 21061 6980 C21089 6900 21115 6828 21119 6821 C21128 6804 21122 6789 21206 7030 C21242 7131 21279 7238 21290 7267 C21301 7296 21310 7325 21310 7330 C21310 7336 21236 7340 21125 7340 C21023 7340 20940 7336 20940 7331 "/>
      <path  d="M21840 7145 L21840 6560 21932 6560 L22025 6560 22218 6852 C22325 7013 22451 7204 22498 7276 C22546 7349 22588 7409 22592 7409 C22596 7409 22600 7218 22600 6985 L22600 6560 22695 6560 L22790 6560 22790 7145 L22790 7730 22694 7730 L22599 7730 22393 7417 C22280 7245 22153 7053 22111 6990 L22035 6875 22032 7302 L22030 7730 21935 7730 L21840 7730 21840 7145 "/>
      <path  d="M23490 7145 L23490 6560 23585 6560 L23680 6560 23949 6967 C24096 7191 24226 7386 24238 7400 L24259 7425 24259 6992 L24260 6560 24355 6560 L24450 6560 24450 7145 L24450 7730 24351 7730 L24253 7730 24179 7617 C23859 7131 23698 6890 23689 6884 C23683 6880 23680 7029 23680 7304 L23680 7730 23585 7730 L23490 7730 23490 7145 "/>
      <path  d="M28770 7150 L28770 6570 28865 6570 L28960 6570 28960 7075 L28960 7580 29155 7580 L29350 7580 29350 7655 L29350 7730 29060 7730 L28770 7730 28770 7150 "/>
      <path  d="M30920 7225 L30920 6720 30765 6720 L30610 6720 30610 6645 L30610 6570 31020 6570 L31430 6570 31430 6645 L31430 6720 31270 6720 L31110 6720 31110 7225 L31110 7730 31015 7730 L30920 7730 30920 7225 "/>
      <path  d="M33380 7145 L33380 6560 33474 6560 L33568 6560 33726 6797 C33813 6928 33891 7046 33899 7060 C33944 7136 34136 7419 34142 7419 C34146 7419 34150 7226 34150 6990 L34150 6560 34245 6560 L34340 6560 34340 7145 L34340 7730 34241 7730 L34143 7730 33899 7360 C33764 7156 33637 6964 33615 6932 L33575 6875 33572 7302 L33570 7730 33475 7730 L33380 7730 33380 7145 "/>
      <path  d="M27572 5364 C27557 5361 27506 5352 27460 5343 C27070 5273 26740 5022 26560 4661 C26361 4259 26360 3701 26559 3295 C26605 3200 26653 3120 26691 3075 C26794 2950 26850 2898 26965 2820 C27208 2654 27514 2579 27865 2600 C28404 2633 28838 2961 28993 3455 C29044 3615 29055 3697 29054 3935 C29054 4056 29051 4162 29047 4172 C29041 4189 28982 4190 28015 4190 L26990 4190 26990 4214 C26990 4258 27018 4376 27045 4444 C27125 4643 27290 4795 27505 4867 C27579 4892 27597 4894 27755 4894 C27913 4894 27930 4892 28005 4867 C28098 4836 28192 4778 28255 4715 C28296 4673 28380 4554 28380 4538 C28380 4533 28517 4530 28684 4530 L28989 4530 28975 4569 C28910 4752 28763 4959 28612 5082 C28434 5226 28288 5296 28062 5344 C27988 5360 27626 5375 27572 5364 M26994 3717 C27018 3601 27038 3541 27077 3460 C27116 3380 27138 3350 27210 3278 C27279 3208 27313 3183 27386 3146 C27511 3083 27586 3067 27740 3067 C27974 3068 28148 3138 28300 3291 C28399 3392 28463 3530 28474 3669 L28480 3740 27735 3740 L26990 3740 26994 3717 "/>
      <path  d="M30512 5364 C30316 5323 30228 5295 30130 5241 C29767 5045 29521 4695 29450 4275 C29413 4056 29415 3819 29456 3625 C29566 3098 29963 2701 30465 2614 C30569 2596 30803 2593 30900 2609 C31150 2649 31379 2766 31552 2943 C31578 2970 31600 2996 31600 3001 C31600 3006 31604 3010 31610 3010 C31616 3010 31620 2941 31620 2825 L31620 2640 31905 2640 L32190 2640 32190 3985 L32190 5330 31905 5330 L31620 5330 31620 5140 C31620 5035 31616 4950 31612 4950 C31608 4950 31591 4967 31575 4987 C31536 5036 31428 5130 31360 5175 C31215 5269 31068 5326 30897 5355 C30811 5369 30566 5375 30512 5364 M30684 4880 C30417 4826 30212 4668 30095 4426 C30039 4310 30012 4213 29999 4076 C29977 3839 30026 3619 30143 3435 C30382 3062 30900 2966 31270 3226 C31413 3327 31538 3514 31591 3706 C31610 3774 31613 3810 31613 3985 C31613 4174 31612 4189 31586 4274 C31491 4584 31294 4783 31002 4865 C30936 4883 30744 4893 30684 4880 "/>
      <path  d="M13991 5350 C13269 5272 12694 4798 12508 4126 C12414 3789 12424 3371 12531 3045 C12569 2930 12653 2758 12721 2654 C12885 2406 13069 2243 13370 2078 C13432 2043 13609 1977 13705 1951 C13992 1875 14373 1875 14660 1951 C14839 1998 15036 2087 15192 2192 C15311 2272 15495 2455 15575 2574 C15629 2656 15750 2881 15750 2901 C15750 2906 15600 2910 15416 2910 L15083 2910 15036 2836 C14897 2616 14681 2473 14405 2418 C14301 2398 14027 2401 13922 2423 C13573 2498 13312 2694 13157 2995 C13020 3263 12978 3611 13045 3935 C13094 4176 13208 4388 13373 4547 C13469 4639 13523 4677 13628 4729 C13799 4814 13915 4841 14133 4847 C14319 4852 14405 4843 14540 4803 C14850 4710 15079 4489 15193 4171 C15216 4108 15228 4063 15255 3932 L15260 3910 14625 3910 L13990 3910 13990 3690 L13990 3470 14920 3470 L15851 3470 15847 3737 C15842 4024 15839 4044 15775 4233 C15638 4636 15329 4985 14934 5185 C14664 5321 14307 5384 13991 5350 "/>
      <path  d="M22892 5350 C22225 5275 21691 4870 21461 4265 C21393 4085 21361 3918 21353 3690 C21333 3161 21515 2700 21880 2357 C22098 2151 22379 2003 22682 1935 C22934 1879 23236 1878 23493 1934 C23985 2040 24380 2339 24593 2765 C24618 2814 24643 2867 24649 2882 L24659 2910 24319 2910 C24044 2910 23980 2907 23980 2896 C23980 2871 23861 2704 23803 2648 C23701 2549 23609 2494 23460 2442 C23326 2395 23252 2384 23070 2385 C22928 2386 22889 2389 22793 2412 C22589 2460 22411 2557 22269 2699 C22069 2898 21955 3163 21927 3492 C21899 3828 21973 4148 22136 4391 C22300 4637 22558 4802 22858 4854 C22967 4873 23189 4874 23296 4855 C23589 4803 23819 4647 23954 4405 L23990 4340 24325 4340 C24509 4340 24660 4342 24660 4346 C24660 4366 24542 4588 24490 4667 C24355 4871 24109 5081 23887 5182 C23707 5265 23603 5297 23414 5330 C23277 5353 23015 5363 22892 5350 "/>
      <path  d="M16400 3980 L16400 2620 16680 2620 L16960 2620 16960 3980 L16960 5340 16680 5340 L16400 5340 16400 3980 "/>
      <path  d="M17680 3520 L17680 1700 17970 1700 L18260 1700 18260 3520 L18260 5340 17970 5340 L17680 5340 17680 3520 "/>
      <path  d="M18960 3980 L18960 2620 19250 2620 L19540 2620 19540 3980 L19540 5340 19250 5340 L18960 5340 18960 3980 "/>
      <path  d="M25300 3520 L25300 1700 25590 1700 L25880 1700 25880 3520 L25880 5340 25590 5340 L25300 5340 25300 3520 "/>
      <path  d="M32920 3985 L32920 2640 33195 2640 L33470 2640 33470 2792 L33470 2945 33502 2908 C33619 2777 33835 2661 34044 2619 C34158 2595 34368 2591 34481 2609 C34730 2649 34956 2764 35099 2923 C35113 2939 35129 2957 35135 2963 C35189 3021 35272 3176 35313 3300 C35373 3478 35372 3465 35377 4437 L35381 5330 35105 5330 L34830 5330 34829 4572 C34829 4155 34825 3771 34819 3717 C34807 3587 34787 3511 34738 3412 C34634 3200 34421 3079 34149 3080 C33827 3080 33589 3251 33510 3541 C33474 3671 33470 3785 33470 4567 L33470 5330 33195 5330 L32920 5330 32920 3985 "/>
      <path  d="M16562 2264 C16459 2229 16379 2147 16345 2041 C16321 1970 16327 1844 16357 1778 C16383 1720 16447 1648 16503 1616 C16639 1537 16825 1563 16935 1675 C17109 1855 17044 2169 16813 2259 C16747 2284 16631 2287 16562 2264 "/>
      <path  d="M19129 2260 C19034 2224 18958 2146 18924 2050 C18908 2003 18902 1869 18915 1827 C18945 1729 19014 1649 19107 1603 C19158 1578 19176 1575 19260 1575 C19343 1575 19361 1578 19411 1602 C19474 1633 19547 1705 19580 1771 C19612 1831 19618 1954 19595 2035 C19573 2111 19522 2180 19455 2226 C19373 2282 19225 2297 19129 2260 "/>
    </g>
  </g>
  <g fill="#E2E8EB" stroke="#E2E8EB" stroke-width="1" fill-rule="evenodd">
    <g>
      <path d="M5892 8760 C5553 8734 5251 8674 4950 8571 C4796 8518 4756 8503 4672 8464 C4643 8450 4617 8440 4614 8440 C4604 8440 4387 8329 4306 8282 C3755 7966 3294 7508 2987 6973 C2846 6727 2735 6452 2646 6122 C2533 5710 2497 5500 2456 5002 C2454 4979 2454 4960 2457 4960 C2460 4960 2510 4987 2568 5021 C2727 5114 3016 5246 3144 5283 L3183 5295 3206 5434 C3254 5723 3355 6071 3459 6315 C3615 6677 3797 6948 4051 7195 C4263 7401 4437 7521 4725 7656 C5284 7920 5938 7979 6600 7824 C6767 7785 6980 7713 6980 7696 C6980 7691 6969 7690 6957 7693 C6783 7736 6152 7750 5888 7717 C5227 7634 4650 7386 4211 6997 C3843 6670 3580 6155 3450 5501 C3425 5373 3424 5365 3447 5374 C3457 5378 3519 5392 3585 5406 C3651 5420 3707 5434 3711 5438 C3714 5441 3727 5487 3740 5540 C3843 5969 4057 6399 4322 6710 C4397 6798 4581 6974 4660 7033 C5030 7311 5422 7456 5948 7509 C6389 7553 6917 7462 7325 7271 C7587 7148 7778 7013 7990 6801 C8176 6614 8294 6457 8404 6248 C8460 6141 8544 5940 8536 5932 C8533 5930 8473 5944 8403 5963 C8332 5983 8167 6028 8037 6064 C7906 6100 7795 6130 7791 6130 C7781 6130 7775 6111 7604 5492 C7523 5199 7458 4957 7461 4955 C7465 4951 7842 4845 8710 4604 C8916 4547 9215 4464 9375 4420 C9534 4375 9739 4319 9830 4293 C9920 4268 10041 4235 10098 4218 C10155 4202 10204 4190 10205 4192 C10208 4195 10262 4389 10481 5180 C10538 5387 10625 5696 10640 5750 C10645 5769 10668 5850 10690 5930 C10712 6009 10747 6138 10769 6215 C10791 6292 10816 6380 10824 6412 C10833 6444 10846 6493 10854 6522 C10862 6551 10890 6649 10915 6740 C10940 6830 10962 6913 10963 6924 C10964 6939 10953 6946 10910 6957 C10856 6972 10539 7060 10470 7080 C10450 7085 10367 7108 10285 7131 C10202 7153 10058 7193 9965 7220 C9871 7246 9792 7265 9789 7261 C9785 7257 9743 7111 9695 6935 C9646 6759 9603 6603 9600 6590 C9594 6568 9585 6579 9535 6680 C9345 7057 9083 7411 8773 7708 C8632 7844 8411 8028 8259 8136 C7805 8458 7158 8688 6532 8749 C6374 8765 6034 8771 5892 8760 M5547 8286 C5546 8284 5500 8279 5445 8276 C5327 8269 5184 8249 5047 8220 C4663 8138 4277 7957 3970 7713 C3863 7629 3663 7430 3580 7325 C3369 7060 3166 6669 3050 6305 C2983 6095 2908 5742 2884 5528 C2876 5450 2893 5447 2908 5523 C2924 5599 3054 5993 3104 6115 C3313 6625 3573 7032 3898 7356 C4014 7473 4223 7641 4341 7715 C4439 7776 4675 7895 4765 7929 C4798 7941 4834 7955 4845 7960 C4929 7996 5185 8062 5350 8090 C5618 8136 6022 8147 6308 8116 C6576 8086 6854 8028 7099 7950 C7168 7928 7225 7912 7228 7914 C7239 7926 6900 8072 6743 8123 C6414 8229 6130 8276 5765 8285 C5646 8287 5548 8288 5547 8286 "/>
      <path d="M5602 7214 C5526 7196 5360 7144 5315 7124 C5039 7004 4869 6890 4684 6705 C4406 6425 4197 6051 4070 5601 C4052 5539 4040 5486 4042 5484 C4044 5481 4104 5483 4175 5487 L4304 5495 4312 5540 C4331 5641 4375 5802 4415 5920 C4534 6266 4658 6472 4883 6695 C5098 6906 5339 7069 5642 7208 C5699 7234 5692 7235 5602 7214 "/>
      <path d="M2585 7084 C2551 7064 2540 7039 2540 6986 C2540 6923 2569 6889 2632 6882 C2688 6876 2723 6894 2746 6943 C2765 6982 2752 7046 2720 7073 C2691 7097 2615 7103 2585 7084 M2640 7054 C2640 7047 2707 6980 2714 6980 C2726 6980 2718 7008 2700 7033 C2682 7056 2640 7071 2640 7054 "/>
      <path d="M1823 6787 C1830 6775 1842 6755 1850 6743 C1862 6724 1860 6717 1836 6685 C1804 6644 1811 6640 1860 6673 C1892 6695 1897 6696 1915 6683 C1926 6675 1943 6663 1954 6657 C1973 6647 1973 6647 1957 6670 C1920 6723 1919 6725 1945 6760 C1981 6809 1975 6816 1929 6779 L1888 6747 1864 6768 C1851 6780 1833 6794 1825 6800 C1811 6808 1811 6807 1823 6787 "/>
      <path d="M1387 6355 C1348 6324 1345 6324 1308 6351 C1269 6378 1264 6371 1295 6329 C1308 6311 1320 6295 1320 6295 C1320 6294 1308 6278 1295 6260 C1262 6216 1270 6210 1314 6244 L1350 6271 1385 6244 C1423 6214 1430 6221 1400 6260 C1374 6292 1375 6302 1405 6339 C1437 6379 1428 6386 1387 6355 "/>
      <path d="M2112 6288 C2061 6255 2050 6236 2050 6187 C2050 6146 2054 6133 2079 6109 C2103 6084 2116 6080 2156 6080 C2252 6080 2299 6164 2249 6246 C2221 6291 2150 6313 2112 6288 M2155 6253 C2145 6240 2150 6231 2168 6225 C2178 6222 2192 6208 2198 6194 C2204 6180 2214 6171 2220 6175 C2237 6185 2231 6209 2205 6235 C2179 6260 2164 6265 2155 6253 "/>
      <path d="M4972 6186 C4844 6121 4833 5935 4954 5864 C5043 5812 5137 5830 5203 5913 C5231 5948 5234 5958 5234 6020 C5234 6081 5231 6092 5204 6126 C5187 6147 5159 6172 5141 6182 C5103 6203 5011 6205 4972 6186 M5040 6119 C5040 6105 5049 6095 5070 6088 C5090 6081 5107 6064 5120 6038 C5142 5996 5151 5992 5169 6014 C5184 6033 5161 6088 5126 6118 C5091 6147 5040 6147 5040 6119 "/>
      <path d="M1425 5814 C1353 5762 1328 5651 1369 5570 C1411 5488 1531 5454 1619 5499 C1742 5562 1749 5734 1632 5817 C1606 5835 1586 5840 1530 5840 C1470 5840 1454 5836 1425 5814 M1518 5775 C1502 5752 1514 5733 1549 5726 C1573 5721 1584 5711 1595 5685 C1612 5644 1626 5634 1644 5649 C1654 5658 1655 5669 1649 5692 C1632 5751 1543 5807 1518 5775 "/>
      <path d="M4716 5697 C4720 5690 4731 5672 4742 5657 L4761 5629 4730 5593 C4693 5547 4697 5539 4742 5573 C4761 5588 4781 5600 4786 5600 C4791 5600 4813 5587 4835 5573 L4875 5546 4847 5582 C4814 5625 4814 5636 4840 5670 C4869 5708 4863 5713 4822 5685 C4789 5662 4784 5661 4767 5675 C4738 5699 4708 5712 4716 5697 "/>
      <path d="M5519 5662 C5495 5640 5486 5623 5482 5587 C5477 5543 5480 5537 5512 5505 C5540 5477 5556 5470 5584 5470 C5638 5470 5675 5493 5693 5539 C5708 5576 5708 5583 5693 5620 C5664 5692 5576 5713 5519 5662 M5584 5639 C5581 5634 5589 5625 5603 5620 C5616 5615 5629 5602 5632 5590 C5639 5564 5660 5563 5660 5590 C5660 5628 5599 5667 5584 5639 "/>
      <path d="M1938 5617 C1943 5610 1965 5579 1988 5547 C2011 5516 2030 5485 2030 5479 C2030 5472 2009 5438 1984 5403 C1958 5367 1939 5336 1942 5334 C1944 5332 1970 5348 2000 5370 C2086 5434 2079 5434 2155 5379 C2192 5352 2225 5332 2227 5334 C2229 5336 2210 5366 2185 5401 C2160 5435 2140 5469 2140 5477 C2140 5484 2160 5518 2185 5552 C2209 5586 2230 5617 2230 5622 C2230 5626 2197 5606 2157 5576 L2085 5523 2027 5566 C1961 5616 1925 5637 1938 5617 "/>
      <path d="M720 5395 L771 5321 719 5250 C690 5211 668 5177 671 5175 C673 5173 705 5194 743 5221 C782 5250 817 5269 826 5265 C834 5262 870 5239 906 5213 C977 5162 978 5169 910 5259 C888 5289 870 5317 870 5322 C870 5326 892 5360 919 5397 C946 5434 966 5466 964 5468 C963 5470 937 5454 908 5432 C817 5365 823 5365 747 5420 C710 5447 677 5470 675 5470 C672 5470 692 5436 720 5395 "/>
      <path d="M4141 5234 C4072 5228 4080 5245 4055 5049 C4030 4858 4017 4567 4022 4342 C4026 4151 4022 4097 4007 4162 C4004 4174 3990 4223 3976 4270 C3904 4516 3857 4847 3860 5087 C3861 5144 3859 5193 3856 5197 C3848 5204 3600 5157 3470 5123 C2916 4977 2424 4700 2031 4310 L1918 4198 1925 4151 C1929 4126 1943 4072 1957 4031 C1970 3991 1979 3956 1977 3953 C1974 3951 1944 3980 1910 4019 C1876 4058 1842 4089 1836 4089 C1824 4089 1748 3995 1656 3866 C1529 3689 1369 3389 1300 3200 L1269 3116 1296 3075 C1515 2742 1838 2407 2205 2134 C2313 2053 2561 1888 2650 1838 C2902 1694 3148 1576 3353 1499 C3440 1467 3442 1466 3456 1485 C3523 1579 3676 1733 3845 1876 C4048 2048 4409 2287 4840 2533 C4908 2572 5122 2684 5240 2742 C5297 2771 5346 2796 5349 2797 C5351 2798 5334 2839 5312 2887 C5136 3266 5085 3774 5165 4355 C5195 4570 5254 4844 5316 5050 C5330 5096 5344 5144 5346 5155 C5351 5174 5343 5176 5213 5193 C5041 5214 5023 5214 5015 5192 C4970 5083 4882 4791 4834 4592 C4811 4499 4793 4442 4787 4446 C4780 4450 4779 4526 4783 4668 C4788 4859 4802 5000 4835 5190 L4842 5226 4796 5233 C4740 5241 4223 5242 4141 5234 "/>
      <path d="M1727 4959 C1648 4922 1610 4862 1610 4778 C1610 4673 1687 4600 1796 4600 C1964 4600 2039 4805 1913 4921 C1864 4966 1779 4983 1727 4959 M1778 4895 C1765 4876 1783 4850 1809 4850 C1830 4850 1860 4819 1860 4797 C1860 4789 1866 4776 1875 4769 C1888 4759 1893 4759 1904 4770 C1925 4792 1912 4833 1874 4868 C1833 4905 1794 4916 1778 4895 "/>
      <path d="M763 4725 C671 4689 589 4574 590 4480 C590 4291 761 4161 940 4213 C1050 4245 1119 4333 1127 4450 C1135 4563 1082 4663 988 4710 C936 4736 812 4744 763 4725 M830 4638 C804 4607 831 4570 878 4570 C910 4570 949 4528 963 4480 C977 4430 1000 4418 1029 4444 C1064 4476 1019 4585 954 4625 C921 4645 842 4653 830 4638 "/>
      <path d="M9176 2975 C9099 2948 9048 2893 9000 2783 C8916 2590 8853 2477 8725 2285 C8563 2042 8391 1848 8186 1676 C8047 1560 7990 1518 7857 1436 C7561 1253 7252 1139 6897 1083 C6737 1057 6377 1057 6226 1083 C6076 1108 5864 1161 5745 1204 C5507 1289 5105 1522 5033 1617 C4974 1695 4978 1806 5043 1892 C5071 1929 5109 1952 5350 2075 C5659 2234 5701 2265 5752 2367 C5782 2429 5785 2442 5785 2529 C5785 2621 5783 2628 5742 2712 C5719 2760 5695 2800 5689 2800 C5671 2800 5203 2563 5045 2475 C4498 2168 4031 1840 3620 1474 C3455 1326 3259 1124 3260 1101 C3260 1080 3403 966 3467 937 C3506 918 3532 915 3615 915 C3701 915 3722 919 3770 941 C3800 955 3838 979 3855 995 C4053 1181 4207 1309 4259 1333 C4322 1360 4422 1366 4492 1346 C4535 1333 4577 1306 4676 1228 C5133 868 5607 658 6160 574 C6325 549 6693 544 6870 564 C7458 631 7986 854 8465 1236 C8610 1352 8841 1584 8966 1740 C9149 1970 9314 2236 9440 2508 C9504 2646 9510 2663 9510 2724 C9510 2832 9468 2906 9381 2952 C9317 2986 9236 2995 9176 2975 "/>
    </g>
  </g>
</svg>